<?xml version="1.0" encoding="UTF-8" standalone="no"?>
<!DOCTYPE svg PUBLIC "-//W3C//DTD SVG 1.1//EN" "http://www.w3.org/Graphics/SVG/1.1/DTD/svg11.dtd">
<svg version="1.1" xmlns="http://www.w3.org/2000/svg" xmlns:xlink="http://www.w3.org/1999/xlink" preserveAspectRatio="xMidYMid meet" viewBox="1.4193548387095802 153.6232114844245 797.548387096776 362.38239628027" width="793.55" height="356.38"><defs><text id="a2vbVDAUJQ" x="307.9" y="236.74" font-size="180" font-family="Noe Display" font-weight="700" font-style="normal" letter-spacing="0" alignment-baseline="before-edge" transform="matrix(1 0 0 1 -305.4838709677421 -40.46213417078994)" style="line-height:100%" xml:space="preserve" dominant-baseline="text-before-edge"><tspan x="307.9" dy="0em" alignment-baseline="before-edge" dominant-baseline="text-before-edge" text-anchor="start">Spotted</tspan></text><style id="opensans700normal">
:root 
{   
    --logo-text-color: #000000;
    --logo-leaf-color: #63ab50;
    --logo-leaf-outline: #134615;
}
@font-face{font-family: "Noe Display";font-weight: bold;src: url("https://github.com/qjack001/Spotted/raw/master/assets/fonts/Noe%20Display/noe-display-bold.ttf");}
</style><path d="M46.61 422.75C47.46 416.01 40.15 408.62 48.06 393.99C52.65 385.49 57.89 383.32 63.77 387.46C65.02 388.33 66.55 388.72 68.07 388.52C75.94 387.5 79.49 391.66 78.73 401.01C77.42 417.17 45.75 429.5 46.61 422.75Z" id="b1mkzt1F2x"></path><path d="M42.81 363.05C44.76 356.54 38.76 348.04 48.96 334.91C54.88 327.28 60.4 326 65.53 331.05C66.62 332.12 68.07 332.74 69.6 332.8C77.53 333.08 80.35 337.77 78.07 346.86C74.12 362.59 40.86 369.56 42.81 363.05Z" id="aagwWlB5pA"></path><path d="M68.74 395.47C67.36 388.81 58.04 384.19 60.78 367.79C62.36 358.26 66.61 354.5 73.52 356.51C74.98 356.93 76.55 356.79 77.93 356.12C85.04 352.6 89.75 355.38 92.07 364.46C96.07 380.18 70.13 402.12 68.74 395.47Z" id="abpVBM0VS"></path><path d="M111.26 351.82C108.8 345.49 114.11 336.55 102.89 324.26C96.38 317.13 90.78 316.29 86.07 321.73C85.07 322.88 83.67 323.62 82.15 323.8C74.27 324.71 71.83 329.61 74.83 338.49C80.01 353.86 113.72 358.16 111.26 351.82Z" id="h1qAPK7427"></path><path d="M71.2 330.15C69.82 323.5 60.5 318.88 63.23 302.47C64.81 292.95 69.06 289.19 75.97 291.2C77.43 291.62 79.01 291.48 80.38 290.81C87.49 287.28 92.2 290.07 94.52 299.15C98.52 314.86 72.58 336.81 71.2 330.15Z" id="a6lndD739G"></path><path d="M97.92 310.9C102.26 305.67 112.66 305.97 117.95 290.2C121.03 281.05 119.05 275.74 112 274.26C110.51 273.95 109.19 273.09 108.29 271.85C103.67 265.4 98.2 265.64 91.89 272.57C80.98 284.56 93.57 316.12 97.92 310.9Z" id="b4EfoE1iW"></path><path d="M54.03 321.65C52.42 315.05 42.94 310.77 45.09 294.28C46.33 284.7 50.44 280.8 57.42 282.55C58.9 282.92 60.46 282.73 61.81 282.01C68.79 278.23 73.6 280.85 76.24 289.84C80.8 305.4 55.65 328.25 54.03 321.65Z" id="a2FRA9Yrlk"></path><path d="M60.86 290.12C62.81 283.61 56.81 275.11 67.01 261.98C72.93 254.35 78.46 253.07 83.59 258.12C84.67 259.19 86.12 259.81 87.65 259.87C95.58 260.16 98.4 264.85 96.12 273.94C92.17 289.66 58.92 296.63 60.86 290.12Z" id="a18pkKWiTW"></path><path d="M40.32 267.36C44.05 261.67 40.72 251.82 54.25 242.14C62.1 236.52 67.76 236.87 71.23 243.17C71.97 244.5 73.18 245.52 74.62 246.01C82.15 248.55 83.52 253.85 78.73 261.91C70.46 275.85 36.6 273.04 40.32 267.36Z" id="c3diZJ7mcn"></path><path d="M67.16 255.55C71.56 250.37 69.49 240.18 84.11 232.26C92.6 227.66 98.17 228.71 100.84 235.4C101.4 236.81 102.48 237.97 103.85 238.64C111 242.09 111.7 247.52 105.95 254.92C96.01 267.73 62.76 260.73 67.16 255.55Z" id="dAbyqkQzR"></path><path d="M169.64 252.05C166.74 245.9 171.41 236.61 159.37 225.14C152.37 218.48 146.72 218.03 142.4 223.79C141.49 225.01 140.15 225.84 138.65 226.13C130.84 227.59 128.75 232.65 132.36 241.3C138.61 256.26 172.53 258.2 169.64 252.05Z" id="bgkgOqq9M"></path><path d="M211.74 183.25C204.95 182.94 198.91 174.46 183.15 179.75C173.99 182.82 170.95 187.61 174.03 194.12C174.67 195.5 174.79 197.07 174.34 198.53C171.98 206.11 175.48 210.33 184.81 211.18C200.96 212.65 218.53 183.56 211.74 183.25Z" id="h2tTKButGQ"></path><path d="M97.03 237.08C99.6 230.79 94.45 221.75 105.89 209.67C112.52 202.66 118.14 201.92 122.76 207.44C123.74 208.61 125.11 209.38 126.63 209.58C134.5 210.64 136.85 215.58 133.69 224.4C128.23 239.67 94.46 243.37 97.03 237.08Z" id="a2pOiDM5Hx"></path><path d="M109.53 264.27C108.76 257.52 99.9 252.08 104.11 235.99C106.54 226.65 111.12 223.29 117.82 225.91C119.24 226.46 120.82 226.47 122.24 225.92C129.65 223.06 134.09 226.26 135.57 235.51C138.13 251.53 110.31 271.03 109.53 264.27Z" id="a4wHAmUg"></path><path d="M143.55 219.67C149.95 217.38 158.74 222.94 171.33 212.07C178.64 205.76 179.64 200.17 174.33 195.32C173.2 194.28 172.5 192.87 172.36 191.35C171.67 183.44 166.84 180.87 157.88 183.62C142.38 188.38 137.15 221.95 143.55 219.67Z" id="boLQKgEtf"></path><path d="M216.69 233.68C211.25 229.6 211.04 219.2 195.03 214.69C185.74 212.06 180.54 214.31 179.41 221.41C179.16 222.92 178.37 224.28 177.18 225.24C170.96 230.17 171.47 235.62 178.7 241.59C191.22 251.9 222.12 237.77 216.69 233.68Z" id="c1p8V9SLvV"></path><path d="M90.27 182.69C94.68 177.52 92.61 167.33 107.24 159.43C115.73 154.83 121.31 155.88 123.96 162.57C124.53 163.99 125.6 165.15 126.97 165.82C134.12 169.28 134.81 174.7 129.06 182.1C119.1 194.9 85.86 187.87 90.27 182.69Z" id="b32vHkY4MM"></path><path d="M184.69 247.6C178.92 244.01 169.15 247.57 159.16 234.27C153.36 226.55 153.57 220.88 159.79 217.27C161.11 216.5 162.09 215.26 162.56 213.81C164.91 206.23 170.18 204.74 178.35 209.33C192.48 217.28 190.46 251.19 184.69 247.6Z" id="b3ILg4HNsJ"></path><path d="M66.74 194.41C71.85 198.9 71.26 209.28 86.87 215.01C95.93 218.35 101.29 216.51 102.97 209.51C103.33 208.03 104.22 206.73 105.49 205.87C112.07 201.43 111.98 195.96 105.22 189.46C93.54 178.21 61.65 189.91 66.74 194.41Z" id="d1ztsgnIZO"></path><path d="M179.48 158.87C177.83 165.47 184.23 173.67 174.65 187.26C169.09 195.16 163.63 196.7 158.28 191.9C157.14 190.88 155.66 190.32 154.14 190.33C146.2 190.42 143.16 185.87 145.01 176.68C148.23 160.79 181.12 152.27 179.48 158.87Z" id="a8JmvOXjZQ"></path><path d="M49.3 233.76C56.01 232.66 63.66 239.7 78 231.28C86.32 226.39 88.31 221.07 83.96 215.34C83.04 214.12 82.61 212.61 82.74 211.08C83.48 203.18 79.2 199.78 69.89 200.87C53.78 202.77 42.59 234.85 49.3 233.76Z" id="f3ixFag9fO"></path><path d="M73.89 238.49C76.29 232.13 70.91 223.24 82.02 210.86C88.46 203.67 94.06 202.78 98.82 208.18C99.83 209.32 101.23 210.05 102.75 210.22C110.64 211.06 113.12 215.94 110.2 224.85C105.15 240.25 71.48 244.85 73.89 238.49Z" id="b4c6DQEuIp"></path><path d="M155.37 200.5C149.22 197.59 139.93 202.26 128.46 190.21C121.81 183.22 121.36 177.56 127.12 173.25C128.34 172.33 129.18 170.99 129.46 169.49C130.93 161.69 135.99 159.6 144.63 163.21C159.59 169.47 161.52 203.39 155.37 200.5Z" id="b1mRjpL0dt"></path><path d="M142.93 222.34C141.68 215.66 148.55 207.85 139.8 193.71C134.72 185.5 129.36 183.63 123.73 188.11C122.54 189.06 121.03 189.53 119.5 189.43C111.59 188.86 108.28 193.23 109.59 202.51C111.85 218.57 144.18 229.02 142.93 222.34Z" id="b3MEfpf3EA"></path></defs><g><g id="asZIVYoCR"><use xlink:href="#a2vbVDAUJQ" opacity="1" fill="var(--logo-text-color)" fill-opacity="1"></use></g><g><g><filter id="shadow1452860" x="36.34" y="377.42" width="50.49" height="55.21" filterUnits="userSpaceOnUse" primitiveUnits="userSpaceOnUse"><feFlood></feFlood><feComposite in2="SourceAlpha" operator="in"></feComposite><feGaussianBlur stdDeviation="0"></feGaussianBlur><feOffset dx="0" dy="0" result="afterOffset"></feOffset><feFlood flood-color="var(--logo-leaf-outline)" flood-opacity="1"></feFlood><feComposite in2="afterOffset" operator="in"></feComposite><feMorphology operator="dilate" radius="3"></feMorphology><feComposite in2="SourceAlpha" operator="out"></feComposite></filter><path d="M46.61 422.75C47.46 416.01 40.15 408.62 48.06 393.99C52.65 385.49 57.89 383.32 63.77 387.46C65.02 388.33 66.55 388.72 68.07 388.52C75.94 387.5 79.49 391.66 78.73 401.01C77.42 417.17 45.75 429.5 46.61 422.75Z" id="b1NQ7e2H5y" fill="white" fill-opacity="1" filter="url(#shadow1452860)"></path></g><use xlink:href="#b1mkzt1F2x" opacity="1" fill="var(--logo-leaf-color)" fill-opacity="1"></use><g><use xlink:href="#b1mkzt1F2x" opacity="1" fill-opacity="0" stroke="#000000" stroke-width="1" stroke-opacity="0"></use></g></g><g><g><filter id="shadow2095597" x="34.73" y="320.03" width="52.11" height="53.45" filterUnits="userSpaceOnUse" primitiveUnits="userSpaceOnUse"><feFlood></feFlood><feComposite in2="SourceAlpha" operator="in"></feComposite><feGaussianBlur stdDeviation="0"></feGaussianBlur><feOffset dx="0" dy="0" result="afterOffset"></feOffset><feFlood flood-color="var(--logo-leaf-outline)" flood-opacity="1"></feFlood><feComposite in2="afterOffset" operator="in"></feComposite><feMorphology operator="dilate" radius="3"></feMorphology><feComposite in2="SourceAlpha" operator="out"></feComposite></filter><path d="M42.81 363.05C44.76 356.54 38.76 348.04 48.96 334.91C54.88 327.28 60.4 326 65.53 331.05C66.62 332.12 68.07 332.74 69.6 332.8C77.53 333.08 80.35 337.77 78.07 346.86C74.12 362.59 40.86 369.56 42.81 363.05Z" id="afgeMtSYR" fill="white" fill-opacity="1" filter="url(#shadow2095597)"></path></g><use xlink:href="#aagwWlB5pA" opacity="1" fill="var(--logo-leaf-color)" fill-opacity="1"></use><g><use xlink:href="#aagwWlB5pA" opacity="1" fill-opacity="0" stroke="#000000" stroke-width="1" stroke-opacity="0"></use></g></g><g><g><filter id="shadow15737071" x="52.28" y="346.64" width="48.21" height="58.04" filterUnits="userSpaceOnUse" primitiveUnits="userSpaceOnUse"><feFlood></feFlood><feComposite in2="SourceAlpha" operator="in"></feComposite><feGaussianBlur stdDeviation="0"></feGaussianBlur><feOffset dx="0" dy="0" result="afterOffset"></feOffset><feFlood flood-color="var(--logo-leaf-outline)" flood-opacity="1"></feFlood><feComposite in2="afterOffset" operator="in"></feComposite><feMorphology operator="dilate" radius="3"></feMorphology><feComposite in2="SourceAlpha" operator="out"></feComposite></filter><path d="M68.74 395.47C67.36 388.81 58.04 384.19 60.78 367.79C62.36 358.26 66.61 354.5 73.52 356.51C74.98 356.93 76.55 356.79 77.93 356.12C85.04 352.6 89.75 355.38 92.07 364.46C96.07 380.18 70.13 402.12 68.74 395.47Z" id="cwt4OVzQ8" fill="white" fill-opacity="1" filter="url(#shadow15737071)"></path></g><use xlink:href="#abpVBM0VS" opacity="1" fill="var(--logo-leaf-color)" fill-opacity="1"></use><g><use xlink:href="#abpVBM0VS" opacity="1" fill-opacity="0" stroke="#000000" stroke-width="1" stroke-opacity="0"></use></g></g><g><g><filter id="shadow7068107" x="65.59" y="310.2" width="53.8" height="52.45" filterUnits="userSpaceOnUse" primitiveUnits="userSpaceOnUse"><feFlood></feFlood><feComposite in2="SourceAlpha" operator="in"></feComposite><feGaussianBlur stdDeviation="0"></feGaussianBlur><feOffset dx="0" dy="0" result="afterOffset"></feOffset><feFlood flood-color="var(--logo-leaf-outline)" flood-opacity="1"></feFlood><feComposite in2="afterOffset" operator="in"></feComposite><feMorphology operator="dilate" radius="3"></feMorphology><feComposite in2="SourceAlpha" operator="out"></feComposite></filter><path d="M111.26 351.82C108.8 345.49 114.11 336.55 102.89 324.26C96.38 317.13 90.78 316.29 86.07 321.73C85.07 322.88 83.67 323.62 82.15 323.8C74.27 324.71 71.83 329.61 74.83 338.49C80.01 353.86 113.72 358.16 111.26 351.82Z" id="ahN3E7J8u" fill="white" fill-opacity="1" filter="url(#shadow7068107)"></path></g><use xlink:href="#h1qAPK7427" opacity="1" fill="var(--logo-leaf-color)" fill-opacity="1"></use><g><use xlink:href="#h1qAPK7427" opacity="1" fill-opacity="0" stroke="#000000" stroke-width="1" stroke-opacity="0"></use></g></g><g><g><filter id="shadow6553507" x="54.73" y="281.33" width="48.21" height="58.04" filterUnits="userSpaceOnUse" primitiveUnits="userSpaceOnUse"><feFlood></feFlood><feComposite in2="SourceAlpha" operator="in"></feComposite><feGaussianBlur stdDeviation="0"></feGaussianBlur><feOffset dx="0" dy="0" result="afterOffset"></feOffset><feFlood flood-color="var(--logo-leaf-outline)" flood-opacity="1"></feFlood><feComposite in2="afterOffset" operator="in"></feComposite><feMorphology operator="dilate" radius="3"></feMorphology><feComposite in2="SourceAlpha" operator="out"></feComposite></filter><path d="M71.2 330.15C69.82 323.5 60.5 318.88 63.23 302.47C64.81 292.95 69.06 289.19 75.97 291.2C77.43 291.62 79.01 291.48 80.38 290.81C87.49 287.28 92.2 290.07 94.52 299.15C98.52 314.86 72.58 336.81 71.2 330.15Z" id="k2xSSmqNBx" fill="white" fill-opacity="1" filter="url(#shadow6553507)"></path></g><use xlink:href="#a6lndD739G" opacity="1" fill="var(--logo-leaf-color)" fill-opacity="1"></use><g><use xlink:href="#a6lndD739G" opacity="1" fill-opacity="0" stroke="#000000" stroke-width="1" stroke-opacity="0"></use></g></g><g><g><filter id="shadow5873569" x="79.55" y="259.19" width="47.81" height="60.29" filterUnits="userSpaceOnUse" primitiveUnits="userSpaceOnUse"><feFlood></feFlood><feComposite in2="SourceAlpha" operator="in"></feComposite><feGaussianBlur stdDeviation="0"></feGaussianBlur><feOffset dx="0" dy="0" result="afterOffset"></feOffset><feFlood flood-color="var(--logo-leaf-outline)" flood-opacity="1"></feFlood><feComposite in2="afterOffset" operator="in"></feComposite><feMorphology operator="dilate" radius="3"></feMorphology><feComposite in2="SourceAlpha" operator="out"></feComposite></filter><path d="M97.92 310.9C102.26 305.67 112.66 305.97 117.95 290.2C121.03 281.05 119.05 275.74 112 274.26C110.51 273.95 109.19 273.09 108.29 271.85C103.67 265.4 98.2 265.64 91.89 272.57C80.98 284.56 93.57 316.12 97.92 310.9Z" id="bmBdVSF9j" fill="white" fill-opacity="1" filter="url(#shadow5873569)"></path></g><use xlink:href="#b4EfoE1iW" opacity="1" fill="var(--logo-leaf-color)" fill-opacity="1"></use><g><use xlink:href="#b4EfoE1iW" opacity="1" fill-opacity="0" stroke="#000000" stroke-width="1" stroke-opacity="0"></use></g></g><g><g><filter id="shadow1909473" x="36.77" y="272.33" width="48.02" height="58.49" filterUnits="userSpaceOnUse" primitiveUnits="userSpaceOnUse"><feFlood></feFlood><feComposite in2="SourceAlpha" operator="in"></feComposite><feGaussianBlur stdDeviation="0"></feGaussianBlur><feOffset dx="0" dy="0" result="afterOffset"></feOffset><feFlood flood-color="var(--logo-leaf-outline)" flood-opacity="1"></feFlood><feComposite in2="afterOffset" operator="in"></feComposite><feMorphology operator="dilate" radius="3"></feMorphology><feComposite in2="SourceAlpha" operator="out"></feComposite></filter><path d="M54.03 321.65C52.42 315.05 42.94 310.77 45.09 294.28C46.33 284.7 50.44 280.8 57.42 282.55C58.9 282.92 60.46 282.73 61.81 282.01C68.79 278.23 73.6 280.85 76.24 289.84C80.8 305.4 55.65 328.25 54.03 321.65Z" id="g5VybjO88r" fill="white" fill-opacity="1" filter="url(#shadow1909473)"></path></g><use xlink:href="#a2FRA9Yrlk" opacity="1" fill="var(--logo-leaf-color)" fill-opacity="1"></use><g><use xlink:href="#a2FRA9Yrlk" opacity="1" fill-opacity="0" stroke="#000000" stroke-width="1" stroke-opacity="0"></use></g></g><g><g><filter id="shadow9107499" x="52.78" y="247.1" width="52.11" height="53.45" filterUnits="userSpaceOnUse" primitiveUnits="userSpaceOnUse"><feFlood></feFlood><feComposite in2="SourceAlpha" operator="in"></feComposite><feGaussianBlur stdDeviation="0"></feGaussianBlur><feOffset dx="0" dy="0" result="afterOffset"></feOffset><feFlood flood-color="var(--logo-leaf-outline)" flood-opacity="1"></feFlood><feComposite in2="afterOffset" operator="in"></feComposite><feMorphology operator="dilate" radius="3"></feMorphology><feComposite in2="SourceAlpha" operator="out"></feComposite></filter><path d="M60.86 290.12C62.81 283.61 56.81 275.11 67.01 261.98C72.93 254.35 78.46 253.07 83.59 258.12C84.67 259.19 86.12 259.81 87.65 259.87C95.58 260.16 98.4 264.85 96.12 273.94C92.17 289.66 58.92 296.63 60.86 290.12Z" id="b9lNIzzl3" fill="white" fill-opacity="1" filter="url(#shadow9107499)"></path></g><use xlink:href="#a18pkKWiTW" opacity="1" fill="var(--logo-leaf-color)" fill-opacity="1"></use><g><use xlink:href="#a18pkKWiTW" opacity="1" fill-opacity="0" stroke="#000000" stroke-width="1" stroke-opacity="0"></use></g></g><g><g><filter id="shadow5121091" x="32.04" y="230.17" width="57.48" height="49.86" filterUnits="userSpaceOnUse" primitiveUnits="userSpaceOnUse"><feFlood></feFlood><feComposite in2="SourceAlpha" operator="in"></feComposite><feGaussianBlur stdDeviation="0"></feGaussianBlur><feOffset dx="0" dy="0" result="afterOffset"></feOffset><feFlood flood-color="var(--logo-leaf-outline)" flood-opacity="1"></feFlood><feComposite in2="afterOffset" operator="in"></feComposite><feMorphology operator="dilate" radius="3"></feMorphology><feComposite in2="SourceAlpha" operator="out"></feComposite></filter><path d="M40.32 267.36C44.05 261.67 40.72 251.82 54.25 242.14C62.1 236.52 67.76 236.87 71.23 243.17C71.97 244.5 73.18 245.52 74.62 246.01C82.15 248.55 83.52 253.85 78.73 261.91C70.46 275.85 36.6 273.04 40.32 267.36Z" id="cpxwSmglK" fill="white" fill-opacity="1" filter="url(#shadow5121091)"></path></g><use xlink:href="#c3diZJ7mcn" opacity="1" fill="var(--logo-leaf-color)" fill-opacity="1"></use><g><use xlink:href="#c3diZJ7mcn" opacity="1" fill-opacity="0" stroke="#000000" stroke-width="1" stroke-opacity="0"></use></g></g><g><g><filter id="shadow5455759" x="58.76" y="221.45" width="59.03" height="48.73" filterUnits="userSpaceOnUse" primitiveUnits="userSpaceOnUse"><feFlood></feFlood><feComposite in2="SourceAlpha" operator="in"></feComposite><feGaussianBlur stdDeviation="0"></feGaussianBlur><feOffset dx="0" dy="0" result="afterOffset"></feOffset><feFlood flood-color="var(--logo-leaf-outline)" flood-opacity="1"></feFlood><feComposite in2="afterOffset" operator="in"></feComposite><feMorphology operator="dilate" radius="3"></feMorphology><feComposite in2="SourceAlpha" operator="out"></feComposite></filter><path d="M67.16 255.55C71.56 250.37 69.49 240.18 84.11 232.26C92.6 227.66 98.17 228.71 100.84 235.4C101.4 236.81 102.48 237.97 103.85 238.64C111 242.09 111.7 247.52 105.95 254.92C96.01 267.73 62.76 260.73 67.16 255.55Z" id="egqn8fljF" fill="white" fill-opacity="1" filter="url(#shadow5455759)"></path></g><use xlink:href="#dAbyqkQzR" opacity="1" fill="var(--logo-leaf-color)" fill-opacity="1"></use><g><use xlink:href="#dAbyqkQzR" opacity="1" fill-opacity="0" stroke="#000000" stroke-width="1" stroke-opacity="0"></use></g></g><g><g><filter id="shadow9953138" x="122.65" y="211.78" width="55.17" height="51.54" filterUnits="userSpaceOnUse" primitiveUnits="userSpaceOnUse"><feFlood></feFlood><feComposite in2="SourceAlpha" operator="in"></feComposite><feGaussianBlur stdDeviation="0"></feGaussianBlur><feOffset dx="0" dy="0" result="afterOffset"></feOffset><feFlood flood-color="var(--logo-leaf-outline)" flood-opacity="1"></feFlood><feComposite in2="afterOffset" operator="in"></feComposite><feMorphology operator="dilate" radius="3"></feMorphology><feComposite in2="SourceAlpha" operator="out"></feComposite></filter><path d="M169.64 252.05C166.74 245.9 171.41 236.61 159.37 225.14C152.37 218.48 146.72 218.03 142.4 223.79C141.49 225.01 140.15 225.84 138.65 226.13C130.84 227.59 128.75 232.65 132.36 241.3C138.61 256.26 172.53 258.2 169.64 252.05Z" id="b1HiCMHn8T" fill="white" fill-opacity="1" filter="url(#shadow9953138)"></path></g><use xlink:href="#bgkgOqq9M" opacity="1" fill="var(--logo-leaf-color)" fill-opacity="1"></use><g><use xlink:href="#bgkgOqq9M" opacity="1" fill-opacity="0" stroke="#000000" stroke-width="1" stroke-opacity="0"></use></g></g><g><g><filter id="shadow12775795" x="164.87" y="170.02" width="56.37" height="49.21" filterUnits="userSpaceOnUse" primitiveUnits="userSpaceOnUse"><feFlood></feFlood><feComposite in2="SourceAlpha" operator="in"></feComposite><feGaussianBlur stdDeviation="0"></feGaussianBlur><feOffset dx="0" dy="0" result="afterOffset"></feOffset><feFlood flood-color="var(--logo-leaf-outline)" flood-opacity="1"></feFlood><feComposite in2="afterOffset" operator="in"></feComposite><feMorphology operator="dilate" radius="3"></feMorphology><feComposite in2="SourceAlpha" operator="out"></feComposite></filter><path d="M211.74 183.25C204.95 182.94 198.91 174.46 183.15 179.75C173.99 182.82 170.95 187.61 174.03 194.12C174.67 195.5 174.79 197.07 174.34 198.53C171.98 206.11 175.48 210.33 184.81 211.18C200.96 212.65 218.53 183.56 211.74 183.25Z" id="a24SpC1J52" fill="white" fill-opacity="1" filter="url(#shadow12775795)"></path></g><use xlink:href="#h2tTKButGQ" opacity="1" fill="var(--logo-leaf-color)" fill-opacity="1"></use><g><use xlink:href="#h2tTKButGQ" opacity="1" fill-opacity="0" stroke="#000000" stroke-width="1" stroke-opacity="0"></use></g></g><g><g><filter id="shadow2042449" x="88.89" y="195.79" width="54.16" height="52.21" filterUnits="userSpaceOnUse" primitiveUnits="userSpaceOnUse"><feFlood></feFlood><feComposite in2="SourceAlpha" operator="in"></feComposite><feGaussianBlur stdDeviation="0"></feGaussianBlur><feOffset dx="0" dy="0" result="afterOffset"></feOffset><feFlood flood-color="var(--logo-leaf-outline)" flood-opacity="1"></feFlood><feComposite in2="afterOffset" operator="in"></feComposite><feMorphology operator="dilate" radius="3"></feMorphology><feComposite in2="SourceAlpha" operator="out"></feComposite></filter><path d="M97.03 237.08C99.6 230.79 94.45 221.75 105.89 209.67C112.52 202.66 118.14 201.92 122.76 207.44C123.74 208.61 125.11 209.38 126.63 209.58C134.5 210.64 136.85 215.58 133.69 224.4C128.23 239.67 94.46 243.37 97.03 237.08Z" id="bg7q9h2gz" fill="white" fill-opacity="1" filter="url(#shadow2042449)"></path></g><use xlink:href="#a2pOiDM5Hx" opacity="1" fill="var(--logo-leaf-color)" fill-opacity="1"></use><g><use xlink:href="#a2pOiDM5Hx" opacity="1" fill-opacity="0" stroke="#000000" stroke-width="1" stroke-opacity="0"></use></g></g><g><g><filter id="shadow10127380" x="94.98" y="216.91" width="48.76" height="56.74" filterUnits="userSpaceOnUse" primitiveUnits="userSpaceOnUse"><feFlood></feFlood><feComposite in2="SourceAlpha" operator="in"></feComposite><feGaussianBlur stdDeviation="0"></feGaussianBlur><feOffset dx="0" dy="0" result="afterOffset"></feOffset><feFlood flood-color="var(--logo-leaf-outline)" flood-opacity="1"></feFlood><feComposite in2="afterOffset" operator="in"></feComposite><feMorphology operator="dilate" radius="3"></feMorphology><feComposite in2="SourceAlpha" operator="out"></feComposite></filter><path d="M109.53 264.27C108.76 257.52 99.9 252.08 104.11 235.99C106.54 226.65 111.12 223.29 117.82 225.91C119.24 226.46 120.82 226.47 122.24 225.92C129.65 223.06 134.09 226.26 135.57 235.51C138.13 251.53 110.31 271.03 109.53 264.27Z" id="b1P8NsCRfR" fill="white" fill-opacity="1" filter="url(#shadow10127380)"></path></g><use xlink:href="#a4wHAmUg" opacity="1" fill="var(--logo-leaf-color)" fill-opacity="1"></use><g><use xlink:href="#a4wHAmUg" opacity="1" fill-opacity="0" stroke="#000000" stroke-width="1" stroke-opacity="0"></use></g></g><g><g><filter id="shadow5431211" x="132.88" y="174.55" width="52.8" height="53.23" filterUnits="userSpaceOnUse" primitiveUnits="userSpaceOnUse"><feFlood></feFlood><feComposite in2="SourceAlpha" operator="in"></feComposite><feGaussianBlur stdDeviation="0"></feGaussianBlur><feOffset dx="0" dy="0" result="afterOffset"></feOffset><feFlood flood-color="var(--logo-leaf-outline)" flood-opacity="1"></feFlood><feComposite in2="afterOffset" operator="in"></feComposite><feMorphology operator="dilate" radius="3"></feMorphology><feComposite in2="SourceAlpha" operator="out"></feComposite></filter><path d="M143.55 219.67C149.95 217.38 158.74 222.94 171.33 212.07C178.64 205.76 179.64 200.17 174.33 195.32C173.2 194.28 172.5 192.87 172.36 191.35C171.67 183.44 166.84 180.87 157.88 183.62C142.38 188.38 137.15 221.95 143.55 219.67Z" id="b1cexicYs" fill="white" fill-opacity="1" filter="url(#shadow5431211)"></path></g><use xlink:href="#boLQKgEtf" opacity="1" fill="var(--logo-leaf-color)" fill-opacity="1"></use><g><use xlink:href="#boLQKgEtf" opacity="1" fill-opacity="0" stroke="#000000" stroke-width="1" stroke-opacity="0"></use></g></g><g><g><filter id="shadow1409212" x="164.87" y="205.63" width="60.45" height="47.65" filterUnits="userSpaceOnUse" primitiveUnits="userSpaceOnUse"><feFlood></feFlood><feComposite in2="SourceAlpha" operator="in"></feComposite><feGaussianBlur stdDeviation="0"></feGaussianBlur><feOffset dx="0" dy="0" result="afterOffset"></feOffset><feFlood flood-color="var(--logo-leaf-outline)" flood-opacity="1"></feFlood><feComposite in2="afterOffset" operator="in"></feComposite><feMorphology operator="dilate" radius="3"></feMorphology><feComposite in2="SourceAlpha" operator="out"></feComposite></filter><path d="M216.69 233.68C211.25 229.6 211.04 219.2 195.03 214.69C185.74 212.06 180.54 214.31 179.41 221.41C179.16 222.92 178.37 224.28 177.18 225.24C170.96 230.17 171.47 235.62 178.7 241.59C191.22 251.9 222.12 237.77 216.69 233.68Z" id="aBLuVGwcY" fill="white" fill-opacity="1" filter="url(#shadow1409212)"></path></g><use xlink:href="#c1p8V9SLvV" opacity="1" fill="var(--logo-leaf-color)" fill-opacity="1"></use><g><use xlink:href="#c1p8V9SLvV" opacity="1" fill-opacity="0" stroke="#000000" stroke-width="1" stroke-opacity="0"></use></g></g><g><g><filter id="shadow14333718" x="81.87" y="148.62" width="59.04" height="48.72" filterUnits="userSpaceOnUse" primitiveUnits="userSpaceOnUse"><feFlood></feFlood><feComposite in2="SourceAlpha" operator="in"></feComposite><feGaussianBlur stdDeviation="0"></feGaussianBlur><feOffset dx="0" dy="0" result="afterOffset"></feOffset><feFlood flood-color="var(--logo-leaf-outline)" flood-opacity="1"></feFlood><feComposite in2="afterOffset" operator="in"></feComposite><feMorphology operator="dilate" radius="3"></feMorphology><feComposite in2="SourceAlpha" operator="out"></feComposite></filter><path d="M90.27 182.69C94.68 177.52 92.61 167.33 107.24 159.43C115.73 154.83 121.31 155.88 123.96 162.57C124.53 163.99 125.6 165.15 126.97 165.82C134.12 169.28 134.81 174.7 129.06 182.1C119.1 194.9 85.86 187.87 90.27 182.69Z" id="a2T1rZyuPx" fill="white" fill-opacity="1" filter="url(#shadow14333718)"></path></g><use xlink:href="#b32vHkY4MM" opacity="1" fill="var(--logo-leaf-color)" fill-opacity="1"></use><g><use xlink:href="#b32vHkY4MM" opacity="1" fill-opacity="0" stroke="#000000" stroke-width="1" stroke-opacity="0"></use></g></g><g><g><filter id="shadow14372490" x="146.96" y="198.73" width="50.11" height="57.14" filterUnits="userSpaceOnUse" primitiveUnits="userSpaceOnUse"><feFlood></feFlood><feComposite in2="SourceAlpha" operator="in"></feComposite><feGaussianBlur stdDeviation="0"></feGaussianBlur><feOffset dx="0" dy="0" result="afterOffset"></feOffset><feFlood flood-color="var(--logo-leaf-outline)" flood-opacity="1"></feFlood><feComposite in2="afterOffset" operator="in"></feComposite><feMorphology operator="dilate" radius="3"></feMorphology><feComposite in2="SourceAlpha" operator="out"></feComposite></filter><path d="M184.69 247.6C178.92 244.01 169.15 247.57 159.16 234.27C153.36 226.55 153.57 220.88 159.79 217.27C161.11 216.5 162.09 215.26 162.56 213.81C164.91 206.23 170.18 204.74 178.35 209.33C192.48 217.28 190.46 251.19 184.69 247.6Z" id="a2cEooDFuY" fill="white" fill-opacity="1" filter="url(#shadow14372490)"></path></g><use xlink:href="#b3ILg4HNsJ" opacity="1" fill="var(--logo-leaf-color)" fill-opacity="1"></use><g><use xlink:href="#b3ILg4HNsJ" opacity="1" fill-opacity="0" stroke="#000000" stroke-width="1" stroke-opacity="0"></use></g></g><g><g><filter id="shadow3753076" x="58.2" y="176.72" width="60.16" height="47.91" filterUnits="userSpaceOnUse" primitiveUnits="userSpaceOnUse"><feFlood></feFlood><feComposite in2="SourceAlpha" operator="in"></feComposite><feGaussianBlur stdDeviation="0"></feGaussianBlur><feOffset dx="0" dy="0" result="afterOffset"></feOffset><feFlood flood-color="var(--logo-leaf-outline)" flood-opacity="1"></feFlood><feComposite in2="afterOffset" operator="in"></feComposite><feMorphology operator="dilate" radius="3"></feMorphology><feComposite in2="SourceAlpha" operator="out"></feComposite></filter><path d="M66.74 194.41C71.85 198.9 71.26 209.28 86.87 215.01C95.93 218.35 101.29 216.51 102.97 209.51C103.33 208.03 104.22 206.73 105.49 205.87C112.07 201.43 111.98 195.96 105.22 189.46C93.54 178.21 61.65 189.91 66.74 194.41Z" id="bftyQcMFO" fill="white" fill-opacity="1" filter="url(#shadow3753076)"></path></g><use xlink:href="#d1ztsgnIZO" opacity="1" fill="var(--logo-leaf-color)" fill-opacity="1"></use><g><use xlink:href="#d1ztsgnIZO" opacity="1" fill-opacity="0" stroke="#000000" stroke-width="1" stroke-opacity="0"></use></g></g><g><g><filter id="shadow9847777" x="136.49" y="148.62" width="51.58" height="54" filterUnits="userSpaceOnUse" primitiveUnits="userSpaceOnUse"><feFlood></feFlood><feComposite in2="SourceAlpha" operator="in"></feComposite><feGaussianBlur stdDeviation="0"></feGaussianBlur><feOffset dx="0" dy="0" result="afterOffset"></feOffset><feFlood flood-color="var(--logo-leaf-outline)" flood-opacity="1"></feFlood><feComposite in2="afterOffset" operator="in"></feComposite><feMorphology operator="dilate" radius="3"></feMorphology><feComposite in2="SourceAlpha" operator="out"></feComposite></filter><path d="M179.48 158.87C177.83 165.47 184.23 173.67 174.65 187.26C169.09 195.16 163.63 196.7 158.28 191.9C157.14 190.88 155.66 190.32 154.14 190.33C146.2 190.42 143.16 185.87 145.01 176.68C148.23 160.79 181.12 152.27 179.48 158.87Z" id="a5LZ6H2o6Y" fill="white" fill-opacity="1" filter="url(#shadow9847777)"></path></g><use xlink:href="#a8JmvOXjZQ" opacity="1" fill="var(--logo-leaf-color)" fill-opacity="1"></use><g><use xlink:href="#a8JmvOXjZQ" opacity="1" fill-opacity="0" stroke="#000000" stroke-width="1" stroke-opacity="0"></use></g></g><g><g><filter id="shadow2944633" x="39.32" y="192.67" width="54.88" height="50.81" filterUnits="userSpaceOnUse" primitiveUnits="userSpaceOnUse"><feFlood></feFlood><feComposite in2="SourceAlpha" operator="in"></feComposite><feGaussianBlur stdDeviation="0"></feGaussianBlur><feOffset dx="0" dy="0" result="afterOffset"></feOffset><feFlood flood-color="var(--logo-leaf-outline)" flood-opacity="1"></feFlood><feComposite in2="afterOffset" operator="in"></feComposite><feMorphology operator="dilate" radius="3"></feMorphology><feComposite in2="SourceAlpha" operator="out"></feComposite></filter><path d="M49.3 233.76C56.01 232.66 63.66 239.7 78 231.28C86.32 226.39 88.31 221.07 83.96 215.34C83.04 214.12 82.61 212.61 82.74 211.08C83.48 203.18 79.2 199.78 69.89 200.87C53.78 202.77 42.59 234.85 49.3 233.76Z" id="bbCB20Poa" fill="white" fill-opacity="1" filter="url(#shadow2944633)"></path></g><use xlink:href="#f3ixFag9fO" opacity="1" fill="var(--logo-leaf-color)" fill-opacity="1"></use><g><use xlink:href="#f3ixFag9fO" opacity="1" fill-opacity="0" stroke="#000000" stroke-width="1" stroke-opacity="0"></use></g></g><g><g><filter id="shadow15264887" x="65.76" y="196.7" width="53.62" height="52.56" filterUnits="userSpaceOnUse" primitiveUnits="userSpaceOnUse"><feFlood></feFlood><feComposite in2="SourceAlpha" operator="in"></feComposite><feGaussianBlur stdDeviation="0"></feGaussianBlur><feOffset dx="0" dy="0" result="afterOffset"></feOffset><feFlood flood-color="var(--logo-leaf-outline)" flood-opacity="1"></feFlood><feComposite in2="afterOffset" operator="in"></feComposite><feMorphology operator="dilate" radius="3"></feMorphology><feComposite in2="SourceAlpha" operator="out"></feComposite></filter><path d="M73.89 238.49C76.29 232.13 70.91 223.24 82.02 210.86C88.46 203.67 94.06 202.78 98.82 208.18C99.83 209.32 101.23 210.05 102.75 210.22C110.64 211.06 113.12 215.94 110.2 224.85C105.15 240.25 71.48 244.85 73.89 238.49Z" id="j5gNpG3M2q" fill="white" fill-opacity="1" filter="url(#shadow15264887)"></path></g><use xlink:href="#b4c6DQEuIp" opacity="1" fill="var(--logo-leaf-color)" fill-opacity="1"></use><g><use xlink:href="#b4c6DQEuIp" opacity="1" fill-opacity="0" stroke="#000000" stroke-width="1" stroke-opacity="0"></use></g></g><g><g><filter id="shadow2338377" x="115.11" y="153.5" width="51.53" height="55.17" filterUnits="userSpaceOnUse" primitiveUnits="userSpaceOnUse"><feFlood></feFlood><feComposite in2="SourceAlpha" operator="in"></feComposite><feGaussianBlur stdDeviation="0"></feGaussianBlur><feOffset dx="0" dy="0" result="afterOffset"></feOffset><feFlood flood-color="var(--logo-leaf-outline)" flood-opacity="1"></feFlood><feComposite in2="afterOffset" operator="in"></feComposite><feMorphology operator="dilate" radius="3"></feMorphology><feComposite in2="SourceAlpha" operator="out"></feComposite></filter><path d="M155.37 200.5C149.22 197.59 139.93 202.26 128.46 190.21C121.81 183.22 121.36 177.56 127.12 173.25C128.34 172.33 129.18 170.99 129.46 169.49C130.93 161.69 135.99 159.6 144.63 163.21C159.59 169.47 161.52 203.39 155.37 200.5Z" id="bx9WrXpNC" fill="white" fill-opacity="1" filter="url(#shadow2338377)"></path></g><use xlink:href="#b1mRjpL0dt" opacity="1" fill="var(--logo-leaf-color)" fill-opacity="1"></use><g><use xlink:href="#b1mRjpL0dt" opacity="1" fill-opacity="0" stroke="#000000" stroke-width="1" stroke-opacity="0"></use></g></g><g><g><filter id="shadow10349908" x="101.31" y="177.74" width="51.01" height="54.65" filterUnits="userSpaceOnUse" primitiveUnits="userSpaceOnUse"><feFlood></feFlood><feComposite in2="SourceAlpha" operator="in"></feComposite><feGaussianBlur stdDeviation="0"></feGaussianBlur><feOffset dx="0" dy="0" result="afterOffset"></feOffset><feFlood flood-color="var(--logo-leaf-outline)" flood-opacity="1"></feFlood><feComposite in2="afterOffset" operator="in"></feComposite><feMorphology operator="dilate" radius="3"></feMorphology><feComposite in2="SourceAlpha" operator="out"></feComposite></filter><path d="M142.93 222.34C141.68 215.66 148.55 207.85 139.8 193.71C134.72 185.5 129.36 183.63 123.73 188.11C122.54 189.06 121.03 189.53 119.5 189.43C111.59 188.86 108.28 193.23 109.59 202.51C111.85 218.57 144.18 229.02 142.93 222.34Z" id="b2L6Rxx4b3" fill="white" fill-opacity="1" filter="url(#shadow10349908)"></path></g><use xlink:href="#b3MEfpf3EA" opacity="1" fill="var(--logo-leaf-color)" fill-opacity="1"></use><g><use xlink:href="#b3MEfpf3EA" opacity="1" fill-opacity="0" stroke="#000000" stroke-width="1" stroke-opacity="0"></use></g></g></g></svg>